<svg id="Layer_1" xmlns="http://www.w3.org/2000/svg" viewBox="0 0 201 91"><style>.st0{fill:#121840}.st1{fill:#b3b5b7}</style><path class="st0" d="M92.3 9.3c5.3.2 9.6 2.5 12.6 5.3l.6.5-6.1 6-.6-.5c-2.1-1.9-4.5-2.9-7.4-2.9-2.9 0-5.4.9-7.4 2.7-2.1 1.8-3.1 3.9-3.1 6.4 0 2.5 1 4.6 3.1 6.4 2.1 1.8 4.5 2.6 7.4 2.6 2.9 0 5.4-.9 7.4-2.9l.6-.5 6.1 6-.5.5c-1.7 1.6-3.6 3-5.9 3.9-2.4.9-4.9 1.4-7.6 1.4-5.4 0-10-1.7-13.9-5.1-3.6-3.4-5.4-7.6-5.4-12.4 0-4.8 1.8-9 5.4-12.4 3.8-3.4 8.5-5.2 13.9-5.2h1l-.2.2zM110.3 9.4l20.3 18.2V9.4h8.8v34.7h-1.9L117.1 26v18.2h-8.7V9.4h1.9zM143.6 9.4h23.9v8.4h-15v4.7H164v8.4h-11.6v4.7h15V44h-23.9V9.4zM169.2 9.5h27.1v8.4h-8.8l.3 26.2h-9.6l-.1-26.2h-8.9V9.5z"/><g><path class="st1" d="M80.1 50.7v2.9h-5.9v3h4.4v2.9h-4.4v3h5.9v2.9h-8.8V50.7h8.8zM88.5 60.3l7.2-9.8v15h-2.9v-6.1l-4.2 5.8-4.2-5.8v6.1h-2.9v-15l7 9.8zM97.5 61V50.8h5.1c1.4 0 2.6.5 3.6 1.5s1.5 2.2 1.5 3.6-.5 2.6-1.5 3.6-2.2 1.5-3.6 1.5h-2.2v4.4h-2.9V61zm5.1-7.3h-2.2v4.4h2.2c1.2 0 2.2-1 2.2-2.2.1-1.2-1-2.2-2.2-2.2zM121.2 52.9c1.5 1.5 2.2 3.2 2.2 5.3 0 2.1-.7 3.8-2.2 5.3-1.5 1.4-3.2 2.2-5.3 2.2-2.1 0-3.8-.7-5.3-2.2-1.5-1.5-2.2-3.2-2.2-5.3 0-2 .7-3.8 2.2-5.3 1.5-1.5 3.2-2.2 5.3-2.2 2.1 0 3.9.7 5.3 2.2zm-8.4 2c-.9.9-1.3 1.9-1.3 3.2 0 1.2.4 2.3 1.3 3.2.9.9 1.9 1.3 3.2 1.3 1.2 0 2.3-.4 3.1-1.3.9-.9 1.3-1.9 1.3-3.2 0-1.2-.4-2.3-1.3-3.2-.9-.9-1.9-1.3-3.1-1.3-1.3 0-2.3.5-3.2 1.3zM126.2 50.8l2.7 6.9 2.7-6.9 2.7 6.9 2.7-6.9h3.2l-5.9 15-2.7-7.3-2.7 7.3-5.9-15h3.2zM150.4 50.7v2.9h-5.9v3h4.4v2.9h-4.4v3h5.9v2.9h-8.8V50.7h8.8zM151.6 50.8h4.8c1.6 0 3 .6 3.8 1.5.9.9 1.4 1.7 1.4 3.3v.4c0 1-.3 1.9-.9 2.8-.5.7-.9 1-1.8 1.4l3.4 5.3h-3.6l-4.2-6.5v6.5h-2.9V50.8zm7 4.9c0-.5-.2-1-.6-1.4-.4-.4-1.1-.6-1.8-.6h-1.7v4h2.1c1.2.1 2-.9 2-2zM163.6 50.8h2.9v14.7h-2.9V50.8zM177.2 58.9v-8.1h3v15l-8.8-8.4v8.1h-2.9v-15l8.7 8.4zM188.9 50.7c2.3 0 4.1 1 5.3 2.2l-2.1 2.1c-.9-.9-1.9-1.3-3.1-1.3-1.2 0-2.3.4-3.1 1.3-.9.9-1.3 1.9-1.3 3.2 0 1.2.4 2.3 1.3 3.2.9.9 1.9 1.3 3.1 1.3 1.9 0 3.4-1.2 4-2.6h-4.2v-2.8h7.5c.2 2.7-.7 4.7-2.1 6.2-1.5 1.4-3.2 2.2-5.3 2.2-2.1 0-3.8-.7-5.2-2.2-1.5-1.4-2.2-3.2-2.2-5.3 0-2 .7-3.8 2.2-5.3 1.4-1.5 3.1-2.2 5.2-2.2zM78.1 85.3c-2 0-3.8-.7-5.2-2.2-1.5-1.5-2.2-3.2-2.2-5.3 0-2 .7-3.8 2.2-5.3 1.5-1.5 3.2-2.2 5.2-2.2 2.3 0 4.1 1 5.3 2.2l-2.1 2.1c-.9-.9-1.9-1.3-3.2-1.3-1.2 0-2.3.4-3.1 1.3-.9.9-1.3 1.9-1.3 3.2 0 1.2.4 2.3 1.3 3.2.9.9 1.9 1.3 3.1 1.3 1.2 0 2.3-.4 3.2-1.3l2.1 2.1c-1.2 1.3-3 2.2-5.3 2.2z"/><path class="st1" d="M95.7 72.6c1.5 1.5 2.2 3.2 2.2 5.3 0 2.1-.7 3.8-2.2 5.3-1.5 1.4-3.2 2.2-5.3 2.2-2.1 0-3.8-.7-5.3-2.2-1.4-1.5-2.1-3.2-2.1-5.3 0-2 .7-3.8 2.2-5.3 1.5-1.5 3.2-2.2 5.3-2.2 2 .1 3.7.8 5.2 2.2zm-8.4 2.1c-.9.9-1.3 1.9-1.3 3.2 0 1.2.4 2.3 1.3 3.2.9.9 1.9 1.3 3.2 1.3 1.2 0 2.3-.4 3.1-1.3.9-.9 1.3-1.9 1.3-3.2 0-1.2-.4-2.3-1.3-3.2-.9-.9-1.9-1.3-3.1-1.3-1.3 0-2.4.5-3.2 1.3zM106.3 80.1l7.2-9.8v15h-2.9v-6.1l-4.2 5.8-4.2-5.8v6.1h-2.9v-15l7 9.8zM122.5 80.1l7.2-9.8v15h-2.9v-6.1l-4.2 5.8-4.2-5.8v6.1h-2.9v-15l7 9.8zM140.3 79.4v-8.9h3v8.9c0 1.6-.6 3-1.7 4.2-1.2 1.2-2.6 1.7-4.2 1.7s-3-.6-4.2-1.7c-1.2-1.2-1.7-2.6-1.7-4.2v-8.9h3v8.9c0 1.6 1.4 2.9 3 2.9 1.5.1 2.8-1.3 2.8-2.9zM154 78.7v-8.1h3v15l-8.8-8.4v8.1h-2.9v-15l8.7 8.4zM158.7 70.6h2.9v14.7h-2.9V70.6zM173.1 70.6v2.9h-3.6v11.7h-3V73.5h-3.6v-2.9h10.2zM174.4 70.6h2.9v14.7h-2.9V70.6zM188 70.5v2.9h-5.9v3h4.4v2.9h-4.4v3h5.9v2.9h-8.8V70.5h8.8zM193.3 82.3c.8 0 1.7-.7 1.7-1.5 0-1.3-1.8-1.5-2.8-1.9-1.8-.6-3.4-2.1-3.4-4.1 0-2.5 2-4.5 4.5-4.5 2.3 0 4.1 1.7 4.4 3.8l-2.9.6c0-.8-.7-1.5-1.5-1.5s-1.5.7-1.5 1.5c0 1.3 1.7 1.7 2.7 2 1.8.5 3.5 1.9 3.5 4 0 2.5-2.2 4.5-4.7 4.5-2.3 0-4.3-1.7-4.6-3.8l2.9-.6c0 .9.9 1.6 1.7 1.5z"/></g><g><path d="M38.1 69.5l2.6-1.5-1-4.6-3-.2-2.1-3.5 1.3-2.8-3.6-2.9-2.6 1.6L26 54l-.6-3-4.7-.4-1.1 2.8-3.9.9-2.2-2.1-4 2.4.8 2.9-2.7 3-3-.4-1.8 4.3 2.3 1.9-.4 4-2.6 1.5 1 4.6 3 .2 2.1 3.5L7 83l3.5 3.1 2.5-1.6 3.7 1.6.6 3 4.7.4 1.1-2.8 3.9-.9 2.2 2.1 4-2.4-.8-2.9 2.7-3 3 .3 1.8-4.3-2.3-1.9.5-4.2zm-8.6 3.9l-.1.2c-.7 1.6-1.9 3-3.4 3.9l-.2.1c-1.5.9-3.3 1.3-5.1 1.2h-.2c-1.8-.2-3.4-.9-4.8-2l-.2-.2c-1.3-1.2-2.3-2.7-2.7-4.4V72c-.4-1.7-.2-3.5.5-5.2l.1-.2c.7-1.6 1.9-3 3.4-3.9l.2-.1c1.5-.9 3.3-1.3 5.1-1.2h.2c1.8.2 3.4.9 4.8 2l.2.2c1.3 1.2 2.2 2.7 2.7 4.5v.2c.4 1.6.2 3.4-.5 5.1z" fill="#ae3576"/><path d="M60.4 56.7l2.9-1.2-.3-3.3-3.1-.7-1.1-2.5 1.4-2.8-2.3-2.3-2.8 1.4-2.5-1.1-.7-3.1-3.3-.3-1.2 2.9-2.6.7-2.5-1.9-2.7 1.9.9 3-1.5 2.2-3.1.2-.9 3.1 2.6 1.7.2 2.7-2.3 2.1 1.4 3L40 62l2 2-.4 3.1 3 1.4 2.1-2.3 2.7.2 1.7 2.6 3.2-.8.2-3.1 2.2-1.5 3 .9 1.9-2.7-1.9-2.5.7-2.6zm-5.6.7l-.1.2c-.5 1.1-1.3 2.1-2.4 2.8l-.1.1c-1.1.6-2.3.9-3.6.8h-.2c-1.2-.1-2.4-.6-3.4-1.4l-.1-.1c-.9-.8-1.6-1.9-1.9-3.1v-.2c-.3-1.2-.2-2.5.3-3.6l.1-.2c.5-1.1 1.3-2.1 2.4-2.8l.1-.1c1.1-.6 2.3-.9 3.6-.8h.2c1.2.1 2.4.6 3.4 1.4l.1.1c.9.8 1.6 1.9 1.9 3.1v.2c.3 1.1.1 2.4-.3 3.6z" fill="#f8a126"/></g><g><path d="M30.2 22.7l-2.6 1.5 1 4.6 3 .2 2.1 3.5-1.3 2.8 3.5 3.1 2.6-1.6 3.7 1.6.6 3 4.7.4 1.1-2.8 3.9-.9 2.2 2.1 4-2.4-.7-3.2 2.7-3 3 .4 1.8-4.3-2.3-1.9.4-4 2.6-1.5-1-4.6-3-.2-2.1-3.5 1.3-2.8-3.5-3.1-2.5 1.6-3.7-1.6-.6-3-4.7-.4-1.1 2.8-3.9.9-2.4-2-4 2.4.8 2.9-2.7 3-3-.3-1.8 4.3 2.3 1.9-.4 4.1zm8.6-3.9l.1-.2c.7-1.6 1.9-3 3.4-3.9l.2-.1c1.5-.9 3.3-1.3 5.1-1.2h.2c1.8.2 3.4.9 4.8 2l.2.2c1.3 1.2 2.3 2.7 2.7 4.4v.2c.4 1.7.2 3.5-.5 5.2l-.1.2c-.7 1.6-1.9 3-3.4 3.9l-.2.1c-1.5.9-3.3 1.3-5.1 1.2H46c-1.8-.2-3.4-.9-4.8-2l-.2-.1c-1.3-1.2-2.2-2.7-2.7-4.5V24c-.4-1.7-.2-3.5.5-5.2z" fill="#e1366f"/><path d="M7.9 35.5L5 36.7l.3 3.3 3.1.7 1.1 2.5L8.1 46l2.3 2.3 2.8-1.4 2.5 1.1.7 3.1 3.3.3 1.2-2.9 2.6-.7 2.5 1.9 2.7-1.9-.9-3 1.6-2.2 3.1-.2.9-3.2-2.6-1.7-.2-2.7 2.3-2.1-1.4-3-3.1.4-1.9-1.9.4-3.1-3-1.4-2.3 2.3-2.7-.2-1.7-2.6-3.2.8-.2 3.1-2.2 1.5-3-.9-1.9 2.7 1.9 2.5-.7 2.6zm5.6-.7l.1-.2c.5-1.1 1.3-2.1 2.4-2.8l.1-.1c1.1-.6 2.3-.9 3.6-.8h.2c1.2.1 2.4.6 3.4 1.4l.1.1c.9.8 1.6 1.9 1.9 3.1v.2c.3 1.2.2 2.5-.3 3.6l-.1.2c-.5 1.1-1.3 2.1-2.4 2.8l-.1.1c-1.1.6-2.3.9-3.6.8h-.2c-1.2-.1-2.4-.6-3.4-1.4l-.1-.1c-.9-.8-1.6-1.9-1.9-3.1v-.2c-.3-1.2-.2-2.4.3-3.6z" fill="#99ca50"/></g><g><path d="M52.3 74.2l-1.7.7.2 2 1.8.4.7 1.5-.9 1.7 1.4 1.4 1.7-.9 1.5.7.4 1.8 2 .2.7-1.7 1.6-.4 1.5 1.1 1.6-1.1-.6-1.8.9-1.3 1.9-.1.5-1.9-1.6-1-.1-1.6 1.4-1.3-.8-1.8-1.9.2-1.2-1.2.2-1.9-1.7-.9-1.3 1.4-1.6-.1-1-1.6-1.9.5-.1 1.9-1.4.9-1.8-.6-1.1 1.6 1.1 1.5-.4 1.7zm3.4-.5c.3-.8.8-1.4 1.5-1.8l.1-.1c.6-.4 1.4-.5 2.1-.5h.1c.7.1 1.5.4 2 .9l.1.1c.6.5.9 1.2 1.1 1.9v.1c.2.7.1 1.5-.2 2.2v.1c-.3.7-.8 1.3-1.4 1.7l-.1.1c-.6.4-1.4.5-2.1.5h-.1c-.7-.1-1.5-.4-2-.9l-.1-.1c-.6-.5-1-1.2-1.1-1.9v-.1c-.3-.7-.2-1.5.1-2.2z" fill="#1d88c6"/></g></svg>